<svg xmlns="http://www.w3.org/2000/svg" width="59" height="59" viewBox="0 0 59 59">
  <g id="Group_2" data-name="Group 2" transform="translate(-360 -915)">
    <path id="bulb" d="M384.031,951.055C382.688,947.3,379,943.032,379,939a11,11,0,0,1,22,0c0,4-3.684,8.319-5.032,12.079-2,5.587-1.718,8.922-5.969,8.922C385.813,960,386.034,956.651,384.031,951.055Zm3.972,5.7a1.738,1.738,0,0,0,2,1.25c1.181,0,1.628-.127,2.242-1.781Zm-.976-2.879.009.031c.23.781.421,1.381.6,1.893l4.959-.62c.111-.354.229-.744.359-1.193.082-.278.176-.589.265-.884Zm-.291-.963,6.8-.85c.107-.34.229-.7.352-1.058h-7.766Q386.464,952.007,386.736,952.908ZM381,939c0,2.034,1.349,4.449,2.653,6.783.59,1.057,1.188,2.138,1.686,3.217h9.333c.495-1.074,1.088-2.151,1.673-3.2,1.306-2.348,2.655-4.777,2.655-6.8a9,9,0,0,0-18,0Zm3,0a6.006,6.006,0,0,1,6-6,.5.5,0,1,1,0,1,5.005,5.005,0,0,0-5,5,.5.5,0,1,1-1,0Z" fill="#666d89"/>
    <g id="Ellipse" transform="translate(360 915)" fill="none" stroke="#666d89" stroke-width="2">
      <circle cx="29.5" cy="29.5" r="29.5" stroke="none"/>
      <circle cx="29.5" cy="29.5" r="28.5" fill="none"/>
    </g>
  </g>
</svg>
