<svg xmlns="http://www.w3.org/2000/svg" width="59" height="59" viewBox="0 0 59 59">
  <g id="Group_5" data-name="Group 5" transform="translate(-680 -915)">
    <path id="heart" d="M707.861,958.122l-11.053-10.93a9.4,9.4,0,0,1,0-13.4A9.632,9.632,0,0,1,710,933.5a9.632,9.632,0,0,1,13.192.288,9.4,9.4,0,0,1,0,13.4l-11.053,10.93a3.048,3.048,0,0,1-4.279,0Zm-9.626-22.92a7.429,7.429,0,0,0,0,10.58l11.053,10.93a1.014,1.014,0,0,0,1.425,0l11.053-10.93a7.429,7.429,0,0,0,0-10.58,7.6,7.6,0,0,0-10.409-.221L710,936.2l-1.355-1.219a7.609,7.609,0,0,0-5.1-1.954A7.533,7.533,0,0,0,698.235,935.2Zm.767,5.07a4.247,4.247,0,0,1,4.245-4.244h0a.5.5,0,0,1,0,1h0A3.247,3.247,0,0,0,700,940.271h0a.5.5,0,0,1-1,0Z" fill="#666d89"/>
    <g id="Ellipse" transform="translate(680 915)" fill="none" stroke="#666d89" stroke-width="2">
      <circle cx="29.5" cy="29.5" r="29.5" stroke="none"/>
      <circle cx="29.5" cy="29.5" r="28.5" fill="none"/>
    </g>
  </g>
</svg>
