<svg xmlns="http://www.w3.org/2000/svg" width="59" height="59" viewBox="0 0 59 59">
  <g id="Group_1" data-name="Group 1" transform="translate(-41 -915)">
    <path id="pen" d="M84.4,931.58A8.544,8.544,0,0,0,78.449,929a6.541,6.541,0,0,0-4.669,1.877l-4.867,4.9c-.015.014-.032.024-.047.038s-.013.019-.021.027l0,0-10.33,10.408a4.021,4.021,0,0,0-1.013,1.705l-2.349,8.508A6.864,6.864,0,0,0,55,957.5a3.5,3.5,0,0,0,3.5,3.5,7.112,7.112,0,0,0,1.157-.188l8.478-2.229a4.029,4.029,0,0,0,1.705-1.016l15.263-15.383C87.884,939.406,87.571,934.75,84.4,931.58ZM71.015,952.8a8.144,8.144,0,0,0-.719-2.628l9.454-9.453a4.875,4.875,0,0,1-.985,5c-.008.008-.017.013-.025.02l.013.013-7.728,7.789C71.025,953.293,71.037,953.049,71.015,952.8Zm-1.221-3.54a8.224,8.224,0,0,0-3.366-3.221L75.96,936.5a6.909,6.909,0,0,1,3.378,3.208Zm-4.308-3.693a7.973,7.973,0,0,0-2.868-.6l7.7-7.762a4.8,4.8,0,0,1,4.588-1.062Zm-6.318,13.31a4.9,4.9,0,0,1-.679.127A1.5,1.5,0,0,1,57,957.5a5.08,5.08,0,0,1,.1-.562l1.053-3.814a4.74,4.74,0,0,1,4.733,4.773Zm4.706-1.236A5.583,5.583,0,0,0,62.2,953.8a5.7,5.7,0,0,0-3.766-1.7l1-3.607a1.972,1.972,0,0,1,.391-.685c2.006-1.435,5.091-1.012,7.234,1.133,2.267,2.266,2.617,5.586.871,7.568a2.119,2.119,0,0,1-.359.157Zm19.818-16.864-1.685,1.7c0-.225.027-.443.007-.674a8.834,8.834,0,0,0-8.472-7.84l1.657-1.67A4.547,4.547,0,0,1,78.449,931a6.912,6.912,0,0,1,6.539,6.163A4.582,4.582,0,0,1,83.692,940.773Z" fill="#666d89"/>
    <g id="Ellipse" transform="translate(41 915)" fill="none" stroke="#666d89" stroke-width="2">
      <circle cx="29.5" cy="29.5" r="29.5" stroke="none"/>
      <circle cx="29.5" cy="29.5" r="28.5" fill="none"/>
    </g>
  </g>
</svg>
