<svg xmlns="http://www.w3.org/2000/svg" width="59" height="59" viewBox="0 0 59 59">
  <g id="Group_3" data-name="Group 3" transform="translate(-41 -1038)">
    <path id="phone" d="M60,1081v-26a3,3,0,0,1,3-3H79a3,3,0,0,1,3,3v26a3,3,0,0,1-3,3H63A3,3,0,0,1,60,1081Zm2-2v2a1,1,0,0,0,1,1H79a1,1,0,0,0,1-1v-2Zm0-21v20H80v-20Zm1-4a1,1,0,0,0-1,1v2H80v-2a1,1,0,0,0-1-1ZM70.5,1081a.5.5,0,0,1,0-1h1a.5.5,0,1,1,0,1Zm-1-25a.5.5,0,0,1,0-1h3a.5.5,0,0,1,0,1Z" fill="#666d89"/>
    <g id="Ellipse" transform="translate(41 1038)" fill="none" stroke="#666d89" stroke-width="2">
      <circle cx="29.5" cy="29.5" r="29.5" stroke="none"/>
      <circle cx="29.5" cy="29.5" r="28.5" fill="none"/>
    </g>
  </g>
</svg>
