<svg xmlns="http://www.w3.org/2000/svg" width="59" height="59" viewBox="0 0 59 59">
  <g id="Group_6" data-name="Group 6" transform="translate(-680 -1038)">
    <path id="star" d="M725.881,1063.557a2.3,2.3,0,0,0-1.843-1.511l-8.326-1.238-3.62-7.514a2.338,2.338,0,0,0-4.184,0l-3.619,7.514-8.327,1.238a2.3,2.3,0,0,0-1.842,1.511,2.206,2.206,0,0,0,.537,2.285l6.1,6.093-1.415,8.451a2.226,2.226,0,0,0,.948,2.2,2.366,2.366,0,0,0,2.449.131l7.259-3.908,7.26,3.908a2.366,2.366,0,0,0,2.449-.131,2.228,2.228,0,0,0,.948-2.2l-1.416-8.451,6.1-6.093A2.208,2.208,0,0,0,725.881,1063.557Zm-8.293,6.807a2.213,2.213,0,0,0-.626,1.934l1.415,8.452-7.259-3.907a2.362,2.362,0,0,0-2.235,0l-7.26,3.907,1.416-8.452a2.213,2.213,0,0,0-.626-1.934l-6.1-6.092,8.326-1.24a2.307,2.307,0,0,0,1.743-1.268l3.619-7.513,3.62,7.513a2.305,2.305,0,0,0,1.742,1.268l8.327,1.24Z" fill="#666d89"/>
    <g id="Ellipse" transform="translate(680 1038)" fill="none" stroke="#666d89" stroke-width="2">
      <circle cx="29.5" cy="29.5" r="29.5" stroke="none"/>
      <circle cx="29.5" cy="29.5" r="28.5" fill="none"/>
    </g>
  </g>
</svg>
