<svg xmlns="http://www.w3.org/2000/svg" width="59" height="59" viewBox="0 0 59 59">
  <g id="Group_4" data-name="Group 4" transform="translate(-360 -1038)">
    <path id="bubble" d="M379,1081.094a.91.91,0,0,1,.075-.357h0c.59-1.013,1.928-2.943,1.928-4.736,0-.03.008-.048.008-.075-4.228-2.16-7.007-5.8-7.007-9.925,0-6.628,7.162-12,16-12s16,5.373,16,12-7.164,12-16,12a21.224,21.224,0,0,1-3.086-.229c-.683.833-3.627,3.7-6.753,4.216,0-.013-.161.013-.255.013A.905.905,0,0,1,379,1081.094ZM376,1066c0,3.207,2.211,6.251,5.917,8.144a2,2,0,0,1,1.09,1.781c0,.056,0,.121-.009.184a7.815,7.815,0,0,1-.715,2.932,13.443,13.443,0,0,0,3.085-2.54,2,2,0,0,1,1.545-.731,1.857,1.857,0,0,1,.291.022,19.45,19.45,0,0,0,2.8.207c7.72,0,14-4.486,14-10s-6.28-10-14-10S376,1060.486,376,1066Zm3,0c0-3.794,5.037-7,11-7a.5.5,0,1,1,0,1c-5.327,0-10,2.8-10,6a.5.5,0,0,1-1,0Z" fill="#666d89"/>
    <g id="Ellipse" transform="translate(360 1038)" fill="none" stroke="#666d89" stroke-width="2">
      <circle cx="29.5" cy="29.5" r="29.5" stroke="none"/>
      <circle cx="29.5" cy="29.5" r="28.5" fill="none"/>
    </g>
  </g>
</svg>
